<svg xmlns="http://www.w3.org/2000/svg" viewBox="0 0 64 64">
  <defs>
    <linearGradient id="toothGrad" x1="0%" y1="0%" x2="100%" y2="100%">
      <stop offset="0%" style="stop-color:#0891b2"/>
      <stop offset="100%" style="stop-color:#22d3ee"/>
    </linearGradient>
  </defs>
  <path fill="url(#toothGrad)" d="M32 4C22 4 16 12 16 20c0 4 1 8 2 12l4 24c1 4 4 4 5 0l3-12c1-4 3-4 4 0l3 12c1 4 4 4 5 0l4-24c1-4 2-8 2-12 0-8-6-16-16-16z"/>
  <ellipse fill="#fff" opacity="0.3" cx="26" cy="16" rx="4" ry="3"/>
</svg>



